<svg width="10" height="13" viewBox="0 0 10 13" fill="none" xmlns="http://www.w3.org/2000/svg">
<path d="M7.16111 1.05739L7.30103 1.19885H7.5H9.28571C9.41038 1.19885 9.52337 1.30548 9.52337 1.44444C9.52337 1.58341 9.41038 1.69003 9.28571 1.69003H0.714286C0.589617 1.69003 0.476632 1.58341 0.476632 1.44444C0.476632 1.30548 0.589617 1.19885 0.714286 1.19885H2.5H2.69897L2.83889 1.05739L3.34603 0.544607C3.38666 0.503528 3.45099 0.476632 3.50714 0.476632H6.49286C6.54901 0.476632 6.61334 0.503528 6.65397 0.544607L7.16111 1.05739ZM2.14286 12.5234C1.62533 12.5234 1.19092 12.0917 1.19092 11.5556V4.33333C1.19092 3.79715 1.62533 3.36552 2.14286 3.36552H7.85714C8.37467 3.36552 8.80908 3.79715 8.80908 4.33333V11.5556C8.80908 12.0917 8.37467 12.5234 7.85714 12.5234H2.14286Z" stroke="#E81D1D" stroke-width="0.953265"/>
</svg>
