<svg width="20" height="14" viewBox="0 0 24 17" fill="none" xmlns="http://www.w3.org/2000/svg">
<path fill-rule="evenodd" clip-rule="evenodd" d="M7.66927 15.7715C3.97424 17.0457 1.06569 17.1026 0.22798 15.6648C-0.587885 14.2188 0.835539 11.6292 3.70553 8.88545C3.56573 5.7494 5.12551 2.78987 7.76208 1.18859C10.3974 -0.41197 13.6795 -0.394865 16.2987 1.23279C14.018 2.05857 11.8252 3.11957 9.75434 4.3995C7.60822 5.68238 5.59663 7.18719 3.75124 8.89026C3.87733 11.704 5.34295 14.2731 7.66927 15.7715ZM7.78053 15.8231C7.78056 15.8294 7.7806 15.8357 7.78064 15.842C7.7433 15.8187 7.70618 15.7952 7.66927 15.7715C7.67501 15.7695 7.68075 15.7675 7.68649 15.7655C7.71774 15.785 7.74909 15.8042 7.78053 15.8231ZM7.78053 15.8231C7.72955 6.62582 15.8887 1.51419 16.4688 1.17789C20.0982 -0.0520352 22.9344 -0.0768999 23.7608 1.32981C24.5998 2.75798 23.1821 5.37134 20.289 8.09137C20.4352 11.2319 18.8774 14.1987 16.2387 15.8056C13.6313 17.3933 10.389 17.3971 7.78053 15.8231ZM16.4688 1.17789C16.4135 1.19664 16.358 1.21568 16.3023 1.235C16.3011 1.23426 16.2999 1.23352 16.2987 1.23279C16.3661 1.20837 16.4337 1.18416 16.5012 1.16016C16.5002 1.16016 16.4892 1.16608 16.4688 1.17789Z" fill="white"/>
</svg>
