<svg width="364" height="397" viewBox="0 0 364 397" fill="none" xmlns="http://www.w3.org/2000/svg">
<path d="M139.336 5.39454C137.72 5.38955 130.98 8.94266 127.802 11.4777C126.001 12.915 107.174 20.096 94.2337 24.2829C79.6021 29.0137 75.4066 30.1715 67.5645 31.6586C55.2825 33.9891 48.283 39.3786 42.6194 50.8564C41.0156 54.1051 39.1109 59.31 38.3945 62.4289C37.6787 65.5429 36.7508 68.4472 36.3367 68.8664C35.9232 69.2906 35.5884 71.137 35.5884 72.9835C35.5884 76.2122 35.2457 76.9009 30.3349 83.5579C29.6435 84.4961 28.7884 87.67 28.4333 90.6242C27.9638 94.5217 27.2844 96.5478 25.923 97.9999C24.3486 99.6767 23.925 101.333 23.3039 108.325C22.5028 117.342 22.1241 118.894 16.6007 136.47C12.3489 149.999 8.86687 163.338 6.54566 174.896C4.7721 183.729 3.3024 196.758 3.84856 198.899C4.03773 199.638 5.70957 200.796 7.55885 201.469C9.40813 202.143 12.96 203.435 15.4469 204.339C29.3776 209.409 33.8384 210.267 47.9512 210.592L61.5283 210.906L64.3668 213.74C66.8412 216.221 67.6992 216.58 71.2112 216.58C73.4212 216.58 75.232 216.839 75.232 217.174C75.232 218.811 70.9069 234.984 69.994 236.776C68.3477 240.01 67.7591 250.275 68.8416 256.627C70.2933 265.146 70.1087 268.05 67.5795 276.434C64.8956 285.317 65.16 288.251 69.5101 298.172C72.4135 304.784 72.5881 308.043 70.3681 313.677C68.5223 318.363 68.2979 322.694 69.7595 325.259C70.448 326.467 70.9219 333.329 71.2561 346.842C71.755 366.878 73.2067 378.246 75.5613 380.667C76.3445 381.475 77.6864 381.55 81.3581 380.966C86.7558 380.103 104.84 381.036 111.215 382.508C113.44 383.022 119.641 384.664 124.979 386.141C134.706 388.841 148.829 391.82 154.895 392.459C156.676 392.643 165.97 392.703 175.533 392.584C189.626 392.409 194.535 392.025 201.414 390.602C215.797 387.628 223 385.343 238.674 378.735C255.915 371.47 268.546 367.617 278.489 366.604C282.554 366.19 284.181 365.666 284.754 364.593C285.787 362.667 285.747 345.35 284.694 337.396C284.23 333.912 283.088 328.832 282.15 326.103L280.454 321.162L283.427 314.206C289.179 300.807 290.022 290.232 285.817 284.029C284.245 281.719 283.891 280.451 284.3 278.54C289.069 256.328 289.828 237.689 286.64 220.712L286.126 217.982L291.693 218.611C301.746 219.744 306.031 218.606 310.9 213.476C312.646 211.64 314.232 210.891 317.37 210.467C327.257 209.129 340.258 205.751 350.649 201.814C360.307 198.151 360.137 198.455 357.543 189.897C356.66 186.992 354.815 180.605 353.443 175.709C350.13 163.902 345.356 148.502 340.407 133.696C336.786 122.857 336.426 121.135 336.9 117.023C337.579 111.189 336.342 106.568 333.393 103.938C331.268 102.042 331.039 101.304 330.54 94.3021C330.031 87.131 326.898 72.5144 325.162 69.2707C324.728 68.4572 324.369 66.8803 324.369 65.7625C324.369 64.6496 323.386 61.1115 322.199 57.9027C318.926 49.0698 312.75 42.8569 302.17 37.7418C297.69 35.576 289.109 32.1277 283.103 30.0667C250.482 18.8784 243.957 16.2086 235.771 10.7791C231.95 8.23902 230.782 7.81983 229.396 8.48355C222.107 11.9868 201.175 15.0957 184.887 15.0957C168.579 15.0957 157.14 12.8451 145.198 7.28587C142.973 6.24789 140.329 5.39953 139.336 5.39454ZM138.243 8.62328C138.712 8.62328 139.825 10.0405 140.708 11.7772C143.626 17.4911 152.236 28.1354 157.375 32.3772C167.437 40.6811 179.19 44.6185 188.224 42.7022C197.987 40.6262 206.473 36.2996 215.023 29.0387C219.254 25.4506 227.24 16.5928 229.8 12.6654L231.112 10.6843L234.464 12.9C236.305 14.1176 237.816 15.49 237.816 15.9391C237.816 17.8654 232.738 26.5585 228.552 31.8133C219.982 42.5774 208.793 49.1197 194.131 51.9492C176.356 55.3726 159.839 50.1427 145.711 36.584C138.139 29.3181 130.232 17.7805 130.232 13.9879C130.232 12.8501 136.547 8.62328 138.243 8.62328ZM243.019 18.3245C243.144 18.3245 245.758 19.3724 248.821 20.635C251.884 21.8975 256.584 23.6791 259.252 24.6073C261.921 25.5405 270.976 28.6794 279.377 31.5937C297.356 37.8366 306.415 42.0484 311.488 46.5198C315.414 49.9781 319.575 56.9645 321.076 62.6136C322.104 66.4711 321.795 67.3194 315.978 76.5416L312.706 81.7315L311.583 78.9569C309.837 74.6303 308.286 73.3577 304.819 73.3577C302.334 73.3577 301.072 73.9666 298.488 76.4018C294.766 79.905 294.008 82.2854 291.21 99.2475C290.217 105.256 289.264 110.321 289.089 110.506C288.915 110.69 288.775 105.855 288.775 99.7466C288.775 80.6286 285.473 62.8331 281.931 62.8331C279.91 62.8331 278.938 79.1814 280.08 93.9927C280.554 100.186 281.073 106.578 281.886 116.245C283.816 139.245 283.078 162.59 279.811 181.772C277.291 196.589 276.653 198.839 262.869 240.364C256.648 259.097 251.196 275.551 250.752 276.918C249.784 279.917 249.689 283.73 250.597 283.735C252.263 283.735 256.733 277.572 267.623 260.26L269.399 257.441L268.856 259.856C267.963 263.753 264.216 274.238 258.594 288.58C252.568 303.97 249.121 311.511 245.344 317.524C242.391 322.23 242.037 323.997 243.912 324.715C246.107 325.559 248.397 322.415 254.029 310.837C260.41 297.713 264.655 286.993 273.764 261.074C275.251 256.847 276.723 252.76 277.037 251.981C277.725 250.285 279.067 250.888 279.062 252.9C279.062 253.693 280.22 256.642 281.621 259.452C284.395 265.001 284.395 265.151 281.527 279.288C280.105 286.32 263.458 317.419 250.208 337.83C245.708 344.766 245.105 347.251 247.933 347.251C249.051 347.251 250.931 345.166 254.104 340.375C260.664 330.479 271.874 311.057 278.474 298.157C281.601 292.039 284.45 287.203 284.784 287.413C286.046 288.191 286.445 294.339 285.533 298.875C283.627 308.362 278.663 320.244 274.293 325.808C268.337 333.398 261.727 340.44 257.486 343.708C254.294 346.174 253.166 347.571 253.341 348.794C253.476 349.722 254.139 350.585 254.808 350.71C256.658 351.064 265.763 343.045 272.986 334.711L279.436 327.255L280.374 329.566C281.866 333.299 283.273 347.446 282.978 355.75L282.714 363.435L280.279 363.655C269.619 364.608 254.149 369.254 236.599 376.784C224.896 381.81 212.115 385.777 200.167 388.092C190.2 390.024 165.84 390.922 155.299 389.759C146.809 388.826 133.639 386.046 124.575 383.272C114.443 380.173 104.7 378.406 97.5861 378.391C94.4133 378.386 91.0709 378.182 90.1829 377.942C88.1326 377.388 77.0579 355.74 78.0207 354.173C78.9735 352.636 84.1717 353.484 99.4917 357.696C110.432 360.71 128.042 365.127 134.677 366.524C140.139 367.672 144.245 368.48 153.693 370.252C164.553 372.288 196.032 375.182 207.071 375.162C214.963 375.152 232.419 373.091 234.634 371.904C235.941 371.205 236.14 370.741 235.432 370.032C234.339 368.944 224.916 369.134 220.745 370.332C217.034 371.395 208.758 371.325 204.048 370.187C191.342 367.123 167.058 358.046 149.358 349.762C144.983 347.711 141.252 346.034 141.067 346.034C140.324 346.034 124.844 336.832 119.426 333.169C110.552 327.16 100.819 316.436 94.7326 305.972C91.8941 301.081 87.6338 293.79 85.2741 289.768C74.9976 272.257 72.0293 259.467 78.2402 259.467C79.9962 259.467 81.9717 260.999 87.3594 266.563C93.0664 272.452 95.3911 275.73 101.018 285.776C109.644 301.176 116.827 312 123.687 319.944C129.438 326.607 132.666 328.348 132.666 324.775C132.666 323.702 131.878 322.13 130.935 321.282C128.84 319.406 122.14 310.787 122.14 309.979C122.14 309.659 124.046 311.201 126.38 313.407C145.676 331.637 177.639 346.837 207.476 351.972C227.395 355.406 228.912 355.52 228.912 353.719C228.912 353.055 228.722 352.506 228.493 352.506C226.996 352.506 215.063 348.908 212 347.531C202.602 343.309 195.208 339.257 193.727 337.52C192.839 336.472 189.561 333.912 186.448 331.826C156.931 312.035 121.931 271.778 103.498 236.402C100.714 231.062 97.6409 225.907 96.6532 224.939C92.9666 221.336 85.4837 193.894 81.7971 170.454C76.6588 137.793 75.7259 97.1665 79.1282 54.7688C79.632 48.5209 79.8565 47.8272 81.7023 46.944C82.8147 46.405 92.9915 42.9567 104.336 39.2838C115.685 35.6109 126.48 31.9431 128.331 31.1296C130.177 30.3162 132.192 29.8471 132.791 30.0966C133.389 30.3511 135.44 32.5269 137.355 34.9173C141.601 40.212 150.012 47.1336 156.392 50.5919C166.878 56.2709 180.048 58.7511 191.467 57.1891C212.494 54.3097 228.089 43.6404 239.153 24.5923C241.159 21.144 242.9 18.3245 243.019 18.3245ZM62.526 56.8897C63.6584 56.69 63.7133 58.1173 62.5559 61.0566C61.1292 64.6895 59.2535 65.4381 57.3528 63.1425C56.415 62.0147 56.6943 61.4758 59.3632 59.0255C60.785 57.723 61.8476 57.0094 62.526 56.8897ZM54.2649 66.8703C54.619 66.8703 55.8712 67.7037 57.0385 68.7117L59.1587 70.5382L57.9265 75.793C57.253 78.6824 56.4948 82.4052 56.2304 84.0719C55.966 85.7437 55.4621 87.1161 55.1229 87.1161C54.3596 87.1161 49.3386 81.981 49.3386 81.2025C49.3386 80.8881 49.8414 80.6436 50.4585 80.6436C52 80.6436 52.6136 78.7672 53.1574 72.3447C53.4118 69.3405 53.9107 66.8703 54.2649 66.8703ZM323.541 74.1562C324.603 74.1562 326.803 84.5011 327.891 94.5816C328.824 103.25 329.088 104.173 331.054 105.72C333.842 107.911 334.845 111.698 334.017 116.928C333.438 120.611 333.703 122.103 336.217 129.389C343.565 150.688 353.612 184.407 352.834 185.141C352.006 185.924 345.112 187.935 330.899 191.553C324.04 193.295 317.944 194.732 317.35 194.732C316.033 194.732 315.968 190.675 317.041 173.963C317.465 167.36 317.998 143.831 318.223 121.689L318.647 81.4221L320.767 77.7891C321.94 75.788 323.187 74.1562 323.541 74.1562ZM304.709 78.363C306.784 78.378 307.363 79.6555 307.268 83.0589C307.198 85.4543 306.38 86.637 301.98 90.7141L296.792 95.5347L297.306 91.9317C297.585 89.9456 298.109 87.2308 298.473 85.8984C298.837 84.561 299.361 82.485 299.625 81.2824C300.01 79.5457 300.718 78.9718 303.028 78.5377C303.671 78.4129 304.23 78.363 304.709 78.363ZM46.7171 87.1909C47.2823 87.1859 48.4576 88.0792 50.7703 90.1552L55.0406 93.9927L54.1077 97.2165C53.1449 100.575 53.4243 117.522 54.9458 149.011C55.3599 157.465 56.0782 173.593 56.5372 184.846C56.9961 196.1 57.5798 205.631 57.8342 206.04C58.0836 206.445 57.5648 207.163 56.6918 207.632C52.8206 209.703 29.6001 207.368 27.3707 204.683C26.8464 204.049 26.4358 201.829 26.4508 199.738C26.4672 197.457 25.9749 195.366 25.2345 194.513C24.1849 193.305 24.154 192.591 25.0165 189.667C27.1307 182.491 33.1216 175.375 41.4945 170.075C44.0781 168.443 46.3943 166.582 46.6392 165.943C47.7088 163.159 45.6984 160.015 38.0179 152.534L30.0052 144.734L30.8467 141.615C31.3117 139.899 32.7504 134.699 34.043 130.063C35.3355 125.422 36.3966 120.676 36.3966 119.518C36.3966 116.439 38.5327 113.884 42.5546 112.157C46.508 110.466 46.9715 108.954 44.8309 104.812C43.6875 102.601 43.695 101.733 44.8149 95.7543C45.4968 92.1163 46.1553 88.5083 46.2806 87.7348C46.3369 87.3905 46.4601 87.1959 46.7171 87.1909ZM313.339 89.6561C313.394 89.6561 313.454 89.6761 313.499 89.716C314.187 90.4047 312.122 195.231 311.359 198.101C310.496 201.369 307.123 204.653 302.723 206.49C301.167 207.143 299.191 207.677 298.328 207.677C296.792 207.677 296.767 207.063 297.301 181.977C297.765 160.109 298.084 155.389 299.451 150.224C301.91 140.922 302.998 136.495 304.11 131.201C304.674 128.531 305.412 125.252 305.766 123.915C306.116 122.582 307.009 118.041 307.742 113.814C308.48 109.582 309.433 104.592 309.847 102.726C310.266 100.859 310.61 98.2095 310.61 96.8272C310.61 94.5616 312.526 89.6811 313.339 89.6561ZM306.744 92.3709L306.295 94.8011C306.046 96.1385 305.607 98.8633 305.327 100.869C304.409 107.432 298.737 134.848 298.189 135.392C298.014 135.567 297.655 134.594 297.376 133.212C297.101 131.829 296.512 130.926 296.069 131.201C295.625 131.475 294.921 132.862 294.507 134.29C293.519 137.713 293.41 120.701 294.367 112.437C294.956 107.357 295.505 105.95 298.688 101.508C300.693 98.7036 303.337 95.5098 304.549 94.3969L306.744 92.3709ZM353.907 190.146C354.62 190.091 355.109 190.635 355.403 191.803C355.673 192.886 356.107 194.318 356.366 194.997C356.68 195.815 356.047 196.644 354.495 197.447C350.624 199.448 337.434 203.615 328.4 205.696C318.657 207.937 315.459 208.156 315.459 206.569C315.459 205.966 315.689 203.84 315.958 201.844C316.407 198.58 316.637 198.255 318.343 198.585C320.114 198.924 329.742 197.158 335.274 195.481C336.611 195.077 340.986 193.819 344.987 192.676C348.993 191.529 352.864 190.406 353.592 190.196C353.702 190.161 353.802 190.156 353.907 190.146ZM65.0004 190.785C65.0153 190.78 65.0303 190.785 65.0453 190.805C65.3596 191.089 66.8911 195.815 68.4625 201.315C70.0289 206.814 71.5155 211.949 71.75 212.727C72.0543 213.735 71.72 214.15 70.6126 214.15C67.7391 214.15 66.1777 212.233 65.9682 208.441C65.8584 206.465 65.4793 201.559 65.1251 197.557C64.7908 193.799 64.7509 190.9 65.0004 190.785ZM310.236 208.331C310.481 208.296 310.61 208.326 310.61 208.426C310.61 209.723 306.445 214.175 304.08 215.397C301.341 216.809 297.181 216.944 296.378 215.647C295.744 214.614 298.129 212.528 299.95 212.528C300.588 212.528 303.247 211.44 305.856 210.108C307.817 209.114 309.513 208.436 310.236 208.331ZM75.9753 227.559C76.1699 227.579 76.3694 228.008 76.6638 228.711C77.9658 231.86 80.7195 239.436 81.2932 241.457C81.5726 242.455 81.6823 243.268 81.5426 243.248C81.398 243.228 79.5272 241.596 77.3771 239.615L73.4661 236.012L74.6484 231.351C75.3418 228.627 75.6511 227.534 75.9753 227.559ZM89.4147 247.864C89.719 247.969 91.1557 250.13 93.0464 253.384C104.126 272.477 114.961 285.227 130.227 297.144C138.952 303.955 145.597 310.448 145.597 312.18C145.597 315.323 138.278 312.828 128.027 306.191C119.87 300.906 115.914 296.45 108.681 284.448C105.089 278.49 100.619 271.139 98.7534 268.105C95.4709 262.775 90.5621 252.281 89.3997 248.129C89.3399 247.919 89.3449 247.839 89.4147 247.864ZM68.682 283.326L70.2085 286.978C79.173 308.392 90.3426 326.397 98.9081 333.229C102.435 336.043 124.869 347.646 126.799 347.656C127.603 347.661 138.268 352.037 141.281 353.599C142.603 354.283 144.165 355.411 144.739 356.109C146.26 357.936 145.088 357.676 132.661 353.534C123.078 350.341 100.774 340.929 85.9376 333.808C80.4901 331.193 75.5463 329.052 74.9477 329.052C74.3491 329.052 73.1817 327.031 72.3436 324.561C70.8221 320.079 70.8121 320.054 72.608 315.044C75.1023 308.087 74.9377 303.666 71.9545 297.283C70.6076 294.399 69.3305 290.087 69.101 287.692L68.682 283.326ZM73.8851 333.089C74.0847 333.089 78.9286 335.38 84.6456 338.174C90.3625 340.969 97.7706 344.592 101.108 346.219C108.117 349.647 108.002 349.687 98.2695 347.281C87.3095 344.572 80.5998 343.439 77.1277 343.738L74.0098 344.023L73.7604 338.548C73.6307 335.544 73.6906 333.089 73.8851 333.089Z" fill="black" fill-opacity="0.071066"/>
<path d="M140.299 0.688588C140.129 0.678607 139.954 0.688587 139.77 0.703558H139.74C139.595 0.703558 139.431 0.733498 139.256 0.76344C139.236 0.76843 139.211 0.758449 139.191 0.76344C136.971 1.11775 133.659 2.71466 128.062 6.00328C117.541 12.1913 84.5358 23.8686 68.4774 27.0874C59.1986 28.9488 53.2522 31.384 48.3523 35.3214C44.6139 38.3306 38.9667 46.5397 36.4734 52.6029C33.9153 58.8208 30.5963 70.3585 30.5963 73.0133C30.5963 74.4855 29.5372 76.7511 27.8366 78.9568C24.9592 82.6895 23.3234 87.2457 23.3159 91.5424C23.3134 92.9347 22.8041 94.5016 22.178 95.0206C19.7077 97.0717 18.3667 101.663 18.031 109.228C17.7616 115.306 17.0238 118.884 14.4611 126.804C7.25904 149.046 2.26592 168.313 1.06965 178.419C0.899538 179.861 0.631898 183.629 0.399428 187.811C0.389201 187.99 0.378356 188.155 0.368249 188.34C0.247135 190.171 0.132197 191.988 0.0720446 193.654C0.00259294 195.581 -0.0311751 197.088 -0.0526661 198.365C-0.101585 201.275 -0.00974393 202.762 0.321481 203.62C0.326908 203.64 0.331508 203.665 0.33707 203.685C0.868558 205.486 2.00986 205.921 4.15646 206.365C5.57138 206.659 8.7247 207.742 11.1715 208.77C15.7161 210.666 24.0795 213.271 30.5962 214.833C32.5981 215.312 39.8665 215.921 46.7623 216.176C58.4851 216.61 59.4429 216.764 61.3535 218.546C62.481 219.594 64.6111 220.882 66.0927 221.4C66.8909 221.675 67.4446 221.87 67.8238 222.119C67.8288 222.119 67.8338 222.129 67.8388 222.134C68.0682 222.309 68.2428 222.528 68.3825 222.773C68.597 223.312 68.4873 224.115 68.2578 225.547C67.9784 227.314 66.9857 230.817 66.0628 233.327C65.1349 235.842 64.0424 240.079 63.6134 242.749C62.7603 248.074 63.3191 258.868 64.6909 263.474C65.4093 265.894 65.2846 267.167 63.9576 270.755C59.7173 282.252 59.9068 290.072 64.641 300.093C67.4247 305.966 67.5394 308.092 65.3744 313.143C63.5535 317.399 63.2542 324.096 64.7658 326.756C65.4542 327.964 65.9281 334.945 66.2624 348.749C66.6814 365.82 67.0306 370.162 68.5721 376.55C70.0288 382.603 70.5725 385.198 73.2963 386.221C73.3113 386.226 73.3262 386.231 73.3412 386.236C74.1144 386.62 75.0373 386.77 76.1797 386.75C78.3099 386.895 81.2033 386.765 85.3289 386.61C99.9954 386.056 107.773 387.014 122.589 391.196C133.788 394.355 138.997 395.458 148.684 396.76C149.602 396.885 151.283 397.01 153.379 397.12C153.888 397.234 154.252 397.339 154.312 397.404C154.576 397.664 159.999 397.679 167.003 397.559H167.192C168.439 397.579 169.692 397.579 170.934 397.589C199.828 397.788 212.294 395.363 239.682 384.18C261.003 375.472 268.362 373.266 280.668 371.889C284.24 371.489 287.528 370.811 287.962 370.377C291.534 366.803 290.611 334.766 286.67 325.324C285.542 322.624 285.602 322.15 287.777 316.885C291.833 307.044 292.975 302.219 292.965 294.943C292.96 289.369 292.616 287.388 291.11 284.478C289.069 280.531 289.089 279.613 291.549 267.032C292.626 261.518 292.99 255.469 293.03 242.185L293.075 224.689L293.853 224.644H298.034C303.935 224.644 308.226 223.022 312.077 219.325C314.591 216.914 315.923 216.41 323.945 214.898C339.923 211.879 359.199 205.337 362.482 201.813C362.881 201.384 363.17 201.03 363.37 200.611L363.385 200.581C363.699 200.102 363.854 199.623 363.854 199.144C363.854 198.759 363.679 197.821 363.4 196.574C363.185 195.211 362.836 193.45 362.337 190.96C360.861 183.554 349.766 146.93 343.959 130.277C341.495 123.206 341.205 121.564 341.654 117.287C342.273 111.379 341.19 106.943 338.098 102.676C336.317 100.216 335.688 98.2444 335.274 93.8479C334.296 83.4081 328.075 59.0055 324.708 52.3684C318.547 40.2369 309.343 34.6527 277.456 23.7189C254.598 15.8841 245.394 12.0915 239.103 7.87465C235.866 5.70885 232.563 3.68278 231.76 3.38336C230.927 3.07895 228.333 3.6728 225.699 4.77067C216.615 8.56331 201.334 10.8639 185.086 10.9038C167.726 10.9387 158.238 8.7779 141.655 1.01296C141.251 0.823324 140.808 0.71354 140.299 0.688588ZM138.742 7.70498C138.747 7.70498 138.747 7.69999 138.757 7.70498C138.762 7.70498 138.767 7.71995 138.772 7.71995L142.638 14.3621C147.522 22.7757 159.076 34.498 166.1 38.1908C168.779 39.5981 173.688 41.3797 177.01 42.1382C182.243 43.3259 183.76 43.3708 188.314 42.4825C194.73 41.23 201.928 38.091 208.254 33.7644C212.938 30.5606 224.821 18.8035 228.847 13.3989L230.937 10.6044L234.693 12.9897C237.023 14.4669 238.465 15.9689 238.465 16.9221C238.47 19.1228 233.586 27.4966 229.001 33.1556C220.401 43.775 209.222 50.512 195.393 53.3964C170.64 58.5613 144.359 45.1324 131.943 20.9742C128.381 14.0377 128.486 13.5936 134.627 10.0604L138.742 7.70498ZM145.163 11.1034C145.861 11.1483 148.315 11.8769 151.104 12.8799C161.161 16.5129 165.741 17.506 177.713 17.7156C182.363 18.1996 185.341 18.1996 191.043 17.7156C204.183 17.481 212.739 16.4331 220.66 14.1625C222.167 13.7283 223.544 13.5187 223.718 13.6934C223.893 13.868 221.733 16.438 218.914 19.4023C213.731 24.8567 213.402 25.0164 204.093 27.1373C199.169 28.2551 178.971 28.7342 172.211 27.8858C168.913 27.4716 163.256 26.2141 159.63 25.1062C153.055 23.1001 153.015 23.0901 148.824 17.2964C146.515 14.0976 144.788 11.323 144.978 11.1333C144.998 11.1134 145.063 11.0984 145.163 11.1034ZM125.163 15.8292C125.168 15.8292 125.173 15.8442 125.178 15.8442L128.62 22.4564C131.379 27.7511 133.868 30.91 140.987 38.0661C148.251 45.3769 151.099 47.6475 156.372 50.3273C172.396 58.4615 187.376 59.6842 203.844 54.1948C218.805 49.2045 231.775 37.7118 239.712 22.3965C241.313 19.3025 242.306 18.1896 243.234 18.4791C243.952 18.7036 248.003 20.2407 252.233 21.8825C256.459 23.5193 267.693 27.5365 277.207 30.8152C308.864 41.739 316.342 46.9539 320.997 61.3659L322.573 66.2165C322.583 66.3862 322.588 66.5608 322.588 66.7155C322.588 66.8303 322.558 66.97 322.523 67.1347L318.956 73.5323C316.871 77.2451 314.302 81.3372 313.249 82.6197C311.389 84.9003 311.329 84.9152 311.299 83.1037C311.269 81.0178 309.104 76.3718 307.732 75.4636C306.31 74.5254 301.985 74.7549 300.917 75.8229C298.882 77.8539 299.81 78.9418 303.117 78.4128C305.766 77.9887 306.41 78.1733 307.153 79.5656C308.485 82.0508 308.296 87.7996 306.889 87.7996C306.255 87.7996 303.566 90.195 300.917 93.1343C298.268 96.0686 295.904 98.1645 295.664 97.7803C295.24 97.0916 295.864 93.4187 297.909 84.5559C298.473 82.1057 298.757 79.8201 298.548 79.4558C297.635 77.8839 295.36 81.6665 294.402 86.3475C291.958 98.3043 291.589 100.64 290.566 110.336C290.112 114.623 288.76 147.359 287.822 176.797C287.373 190.815 286.735 204.658 286.386 207.552C286.026 210.562 282.774 221.63 278.778 233.437C274.942 244.785 270.627 257.715 269.195 262.166C262.904 281.704 251.919 308.641 246.526 317.744C244.765 320.713 243.329 323.368 243.329 323.652C243.329 323.942 244.107 324.061 245.06 323.922C248.901 323.348 260.036 298.396 272.417 262.571C273.42 259.676 275.456 254.222 276.942 250.439C278.429 246.657 280.798 240.199 282.21 236.092C283.622 231.98 285.094 228.816 285.483 229.056C286.48 229.674 286.371 251.767 285.328 260.105C283.003 278.689 281.472 284.064 274.757 297.189C268.232 309.944 260.689 323.148 251.61 337.69C248.038 343.404 246.646 346.323 247.21 346.892C247.669 347.346 248.417 347.486 248.881 347.202C250.991 345.899 270.382 312.773 278.733 296.225C283.507 286.759 284.116 285.915 285.109 287.273C286.934 289.768 286.825 297.588 284.874 304.644C282.824 312.075 278.06 322.599 274.617 327.305C272.827 329.75 267.399 335.669 262.55 340.45C254.109 348.773 251.869 352.511 257.187 349.372C259.791 347.83 271.814 335.689 276.628 329.735L279.576 326.087L280.479 328.393C282.1 332.585 283.357 343.713 283.677 352.521V352.741C283.667 353.409 283.647 354.078 283.627 354.752L283.427 362.502V362.517C283.273 363.46 283.068 364.109 282.804 364.373C282.27 364.907 280.609 365.341 279.122 365.341C271.544 365.341 256.524 369.878 236.859 378.097C218.81 385.642 204.482 389.494 188.189 391.211C181.136 391.955 164.813 392.119 158.397 391.506C148.076 390.527 134.691 387.753 121.871 383.945C111.544 380.876 97.4614 378.99 86.1422 379.155C81.3232 379.229 77.0778 378.965 76.7087 378.581C75.1522 376.939 73.486 361.569 73.1717 345.879C72.9024 332.465 72.5532 328.453 71.3609 325.104C70.6674 323.143 70.2983 322.085 70.3033 320.972C70.3083 320.813 70.3232 320.648 70.3332 320.488C70.3382 320.453 70.3482 320.413 70.3482 320.379C70.4729 319.311 70.9119 318.038 71.6901 315.827C74.1994 308.676 74.0098 304.429 70.877 297.688C67.35 290.087 67.2652 283.595 70.5677 273.719L72.9223 266.658L71.5804 261.059C69.5949 252.835 69.8244 244.66 72.2488 237.01C73.3613 233.507 74.4887 229.45 74.7631 227.998C75.3368 224.929 76.3246 224.554 76.9431 227.169C78.1454 232.244 87.4642 257.625 91.0061 265.47C98.0251 281.025 110.736 302.947 119.361 314.36C122.958 319.116 130.012 326.492 130.96 326.492C132.706 326.492 131.434 323.847 127.578 319.46C125.308 316.875 121.891 312.584 120 309.914C111.569 298.007 94.8473 266.039 88.2474 249.222C85.5385 242.32 80.3454 226.461 75.5264 210.392C74.3241 206.385 73.0221 202.193 72.643 201.08C69.8244 192.876 65.6689 167.789 66.482 163.902C66.7215 162.759 66.4122 158.732 65.7986 154.949C62.8403 136.725 62.2965 117.053 64.2521 99.9311C66.4271 80.9479 66.492 77.3449 64.8158 72.8436C63.6634 69.7596 62.4612 68.2575 59.6875 66.4211C57.692 65.0987 55.7864 63.5367 55.4322 62.9578C54.4794 61.4008 50.9923 61.6803 50.0844 63.377C49.6509 64.1854 49.1745 67.1896 49.0228 70.0541C48.8712 72.9185 48.3957 75.234 47.9627 75.214C46.7415 75.1641 40.9008 65.0438 40.9008 62.9728C40.9008 60.1383 44.2906 52.3035 47.7288 47.1734C52.6336 39.8576 57.1632 37.0081 67.4049 34.7924C82.1363 31.6036 108.706 23.155 120.549 17.8902L125.163 15.8292ZM161.361 29.7422C161.69 29.7223 162.323 29.8271 163.326 30.0067C164.843 30.2712 167.347 30.9 168.903 31.394C173.029 32.6965 198.461 32.5867 202.327 31.2543C204.028 30.6654 205.61 30.371 205.839 30.5956C206.433 31.1894 199.569 35.0769 194.58 36.9782C189.681 38.8396 180.432 39.5382 175.873 38.3955C171.971 37.4124 163.81 33.1207 161.954 31.0647C161.111 30.1365 160.812 29.7672 161.361 29.7422ZM54.1501 66.9351C56.1705 67.01 60.346 71.7208 61.3238 75.214C62.2616 78.5725 61.9324 87.7098 60.76 90.7639C60.5356 91.3527 60.1115 91.8318 59.8272 91.8218C58.3456 91.7769 51.5411 86.7367 49.3191 84.0419C46.1843 80.2343 46.0067 78.6624 48.7888 79.361C51.2068 79.9698 51.4862 79.4159 52.2644 72.4245C52.5787 69.6049 53.2621 67.1497 53.776 66.98C53.8907 66.9401 54.0154 66.9301 54.1501 66.9351ZM323.661 72.9235C323.955 72.9385 324.139 73.3776 324.409 74.0912C325.92 78.0885 328.185 90.0103 328.729 96.8621C329.238 103.235 329.497 104.098 331.583 105.949C334.446 108.504 335.065 110.875 334.496 117.148C334.092 121.609 334.476 123.301 338.472 135.068C342.303 146.351 353.947 184.163 354.126 185.874C354.116 185.924 354.121 185.969 354.106 186.014C353.448 186.743 342.752 190.206 336.352 191.738C333.458 192.432 329.817 193.335 328.26 193.749C326.704 194.163 323.701 194.937 321.59 195.466C317.639 196.459 316.223 198.645 319.53 198.645C321.865 198.645 336.252 195.102 346.359 192.032C350.754 190.705 354.605 189.917 354.934 190.286C355.264 190.655 355.972 192.237 356.496 193.799C357.344 196.324 357.259 196.768 355.777 197.976C353.518 199.817 338.716 204.668 327.856 207.128C322.962 208.241 317.939 209.154 316.691 209.159L314.417 209.174L314.856 202.497C315.878 186.668 316.387 167.201 316.851 125.821L317.35 81.936C317.43 81.7414 317.525 81.5368 317.629 81.3122L320.498 76.9157C322.403 74.0164 323.177 72.8935 323.661 72.9235ZM37.6727 74.0463C38.0074 74.0463 39.1802 75.768 40.2917 77.8789C42.3126 81.7214 51.0063 90.6391 57.0176 95.0655L60.2003 97.421L59.4969 104.143C58.7137 111.564 59.3722 138.157 60.5745 147.669C60.9935 151.007 61.662 158.473 62.0711 164.261C62.4801 170.045 63.1935 176.967 63.6425 179.637C64.6053 185.316 68.7209 201.414 71.1104 208.815C72.0284 211.649 72.5472 214.344 72.2678 214.803C71.1803 216.56 68.252 215.522 65.2987 212.323C62.0162 208.77 61.5872 208.66 53.6353 209.593C53.2162 209.643 52.7772 209.683 52.3432 209.718L48.7415 209.688C46.8987 209.668 45.3477 209.638 43.9239 209.608C34.3572 208.775 22.6285 205.716 10.7655 200.815C6.77913 199.169 5.87819 198.43 5.66767 196.698C5.51701 195.456 5.8712 194.423 6.52521 194.173C7.13682 193.939 11.3921 195.052 15.9876 196.649C21.9396 198.724 24.5985 199.313 25.2166 198.695C26.7915 197.118 23.1548 194.702 14.9121 191.833C10.8489 190.416 7.41119 189.153 6.837 188.869C6.77664 188.774 6.72426 188.674 6.68085 188.574C6.6594 186.528 9.46501 171.258 11.2484 163.887C13.4759 154.685 19.8917 132.817 21.7405 128.126C23.5264 123.595 25.7274 111.529 25.7314 106.264C25.7334 103.424 26.2413 101.887 27.7423 100.106C30.4088 96.9319 31.406 94.0974 31.406 89.686C31.406 86.6718 31.8964 85.4392 34.2275 82.7145C36.2305 80.374 37.0646 78.6274 37.0646 76.7261C37.0646 75.249 37.3384 74.0463 37.6727 74.0463ZM313.918 88.628C313.973 88.633 314.018 88.648 314.057 88.6879C314.656 89.2868 313.08 192.317 312.406 196.619C311.663 201.404 309.932 203.8 305.113 206.724C301.775 208.75 299.546 209.449 295.385 209.783L289.987 210.217L290.536 207.068C291.644 200.676 292.641 170.819 292.591 145.248C292.547 120.222 293.27 109.063 295.181 105.45C296.657 102.666 305.672 91.8368 306.515 91.8368C307.098 91.8368 307.208 93.264 306.859 96.0935C305.312 108.564 299.341 137.119 297.176 142.414C296.632 143.746 295.51 147.479 294.682 150.708C293.469 155.433 293.36 156.776 294.183 157.584C294.996 158.388 295.41 158.318 296.238 157.195C297.096 156.037 300.409 143.492 304.829 124.618C306.096 119.214 307.822 109.627 308.834 102.366C309.368 98.5837 309.952 94.7561 310.131 93.8679C310.516 91.9865 313.08 88.5282 313.918 88.628ZM310.506 207.552C313.459 207.552 307.737 215.173 303.427 216.969C300.878 218.037 297.964 218.237 294.697 217.548C293.809 217.358 292.252 217.029 291.25 216.814C288.107 216.146 289.045 214.025 292.482 214.025C295.859 214.025 302.564 211.789 306.919 209.219C308.475 208.301 310.087 207.552 310.506 207.552ZM95.5258 227.075C93.7847 226.985 94.3884 229.23 97.8156 236.092C116.513 273.504 151.393 313.976 184.682 336.877C190.315 340.754 194.924 341.528 192.555 338.204C192.23 337.745 188.219 334.721 183.655 331.482C172.7 323.717 167.073 319.001 156.482 308.731C136.003 288.865 115.356 261.503 102.45 237.105C99.3171 231.182 96.7779 227.289 95.9149 227.124C95.7802 227.094 95.6405 227.085 95.5258 227.075ZM75.0874 331.203C74.4837 331.252 74.2792 331.602 74.2792 332.201C74.2792 333.114 87.0202 339.576 100.42 345.455C105.837 347.83 112.816 350.989 115.934 352.456C119.047 353.928 125.418 356.479 130.087 358.15C138.722 361.234 143.432 361.813 143.432 359.772C143.432 359.558 143.037 359.248 142.374 358.869C142.364 358.859 142.354 358.844 142.339 358.834C142.05 358.594 141.656 358.39 141.252 358.275C141.232 358.27 141.222 358.265 141.202 358.26C139.476 357.452 136.812 356.439 133.315 355.266C121.786 351.393 102.784 343.464 86.7009 335.804C79.6619 332.45 76.4243 331.093 75.0874 331.203Z" fill="#CDCDCD"/>
</svg>
