<svg width="134" height="27" viewBox="0 0 134 27" fill="none" xmlns="http://www.w3.org/2000/svg">
<g clip-path="url(#clip0_1315_31163)">
<path d="M19.7057 20.6953H12.3528V13.3476H19.7057V20.6953ZM12.3528 6H5V13.3476H12.3528V6Z" fill="black"/>
</g>
<path d="M36.5767 8.04925C36.9905 8.04925 37.4042 8.04925 37.7884 8.1378V12.5949C37.4338 12.5064 37.02 12.5064 36.7245 12.5064C33.8873 12.5064 31.6116 14.5431 31.3751 17.3768V23.6345H26.7056V8.28539H31.3751V12.0341C32.0844 9.73175 33.8577 8.04925 36.5767 8.04925V8.04925ZM47.8073 8.01973C51.2947 8.01973 56.1712 10.6468 55.1959 17.5834H44.4677C44.9997 19.1773 46.3887 20.0038 48.2507 20.0038C50.1421 20.0038 50.7332 19.5906 51.7972 19.1478L54.3684 21.6273C53.0089 22.9556 51.1765 23.9297 48.0733 23.9297C44.2608 23.9297 39.7095 21.3026 39.7095 16.019C39.7095 10.6468 44.3199 8.01973 47.8073 8.01973V8.01973ZM47.8073 12.0046C46.4774 12.0046 45.1179 12.772 44.5268 14.307H51.0583C50.5854 12.772 49.1373 12.0046 47.8073 12.0046ZM68.9091 8.28539H73.5787V23.6345H68.9091V22.0996C68.7022 22.6309 67.3132 23.9297 64.9488 23.9297C61.4319 23.9297 57.3829 21.4207 57.3829 15.9304C57.3829 10.6468 61.4319 8.01973 64.9488 8.01973C67.3132 8.01973 68.7022 9.37754 68.9091 9.70223V8.28539V8.28539ZM65.6286 19.8267C67.5496 19.8267 69.116 18.4984 69.116 15.9304C69.116 13.4509 67.5496 12.1227 65.6286 12.1227C63.6189 12.1227 61.9047 13.4805 61.9047 15.9304C61.9047 18.4689 63.6189 19.8267 65.6286 19.8267ZM84.1591 8.01973C86.9668 8.01973 89.3311 9.20043 90.7793 11.6799L87.2328 13.3624C86.4644 12.713 85.8437 12.1227 84.2182 12.1227C82.445 12.1227 80.6422 13.4805 80.6422 15.9895C80.6422 18.4689 82.445 19.7677 84.2182 19.7677C85.8437 19.7677 86.4644 19.2364 87.2328 18.587L90.8384 20.2695C89.3311 22.749 87.0259 23.8706 84.1591 23.8706C80.7308 23.8706 76.1204 21.4207 76.1204 15.9895C76.1204 10.6468 80.7308 8.01973 84.1591 8.01973ZM102.66 8.04925C105.527 8.04925 108.453 9.96789 108.453 14.8383V23.6345H103.783V15.163C103.783 12.8311 102.985 12.0931 101.508 12.0931C99.4091 12.0931 98.1974 14.1299 97.9019 15.0154V23.6345H93.2323V2.76562H97.9019V10.942C98.1974 10.204 99.7638 8.04925 102.66 8.04925V8.04925ZM116.905 23.8706C114.039 23.8706 111.113 21.952 111.113 17.0816V8.28539H115.782V16.7569C115.782 19.0888 116.58 19.8267 118.058 19.8267C120.156 19.8267 121.368 17.79 121.664 16.9045V8.28539H126.333V23.6345H121.664V20.9779C121.368 21.7158 119.802 23.8706 116.905 23.8706Z" fill="black"/>
<defs>
<clipPath id="clip0_1315_31163">
<rect width="14.7057" height="26.6953" fill="white" transform="translate(5)"/>
</clipPath>
</defs>
</svg>
