<?xml version="1.0" standalone="no"?>
<!DOCTYPE svg PUBLIC "-//W3C//DTD SVG 20010904//EN"
 "http://www.w3.org/TR/2001/REC-SVG-20010904/DTD/svg10.dtd">
<svg version="1.0" xmlns="http://www.w3.org/2000/svg" width="179.000000pt" height="179.000000pt" viewBox="0 0 179.000000 179.000000" preserveAspectRatio="xMidYMid meet"><g transform="translate(0.000000,179.000000) scale(0.100000,-0.100000)" fill="#000000" stroke="none"><path d="M47 1742 c-10 -10 -17 -25 -17 -33 0 -7 68 -81 150 -164 l150 -151 -75 -222 c-71 -210 -75 -224 -64 -266 9 -38 53 -86 422 -454 352 -351 418 -412 452 -421 48 -12 102 -2 142 27 15 11 143 137 284 279 215 216 259 265 270 301 26 89 30 85 -423 539 -357 357 -416 413 -453 423 -41 11 -52 9 -265 -64 -123 -42 -225 -75 -226 -74 -2 2 -71 69 -153 151 -82 81 -156 147 -164 147 -7 0 -21 -8 -30 -18z m834 -240 c38 -25 774 -763 788 -790 7 -12 9 -33 6 -45 -8 -27 -511 -535 -542 -548 -13 -4 -31 -5 -42 -1 -27 10 -790 760 -807 794 -13 25 -9 41 59 244 l74 217 209 72 c115 40 214 73 219 74 6 0 22 -7 36 -17z"/><path d="M615 1250 c-57 -23 -100 -109 -86 -172 17 -74 61 -111 141 -116 97 -6 160 55 160 157 0 50 -3 57 -44 97 -41 41 -47 44 -97 43 -30 0 -63 -4 -74 -9z m113 -92 c17 -15 15 -74 -4 -92 -25 -25 -81 -20 -100 9 -41 63 43 131 104 83z"/><path d="M1083 708 c-211 -211 -231 -236 -201 -266 29 -29 55 -10 266 201 209 210 229 236 200 265 -29 29 -55 9 -265 -200z"/><path d="M1212 577 c-137 -137 -212 -219 -212 -233 0 -26 18 -44 44 -44 25 0 434 405 443 438 7 28 -12 52 -41 52 -14 0 -90 -68 -234 -213z"/></g></svg>
